<?xml version="1.0" encoding="UTF-8"?>
<svg width="102px" height="136px" viewBox="0 0 102 136" version="1.1" xmlns="http://www.w3.org/2000/svg" xmlns:xlink="http://www.w3.org/1999/xlink">
    <!-- Generator: Sketch 51.2 (57519) - http://www.bohemiancoding.com/sketch -->
    <title>ani-fake</title>
    <desc>Created with Sketch.</desc>
    <defs></defs>
    <g id="Page-1" stroke="none" stroke-width="1" fill="none" fill-rule="evenodd">
        <g id="首页" transform="translate(-137.000000, -399.000000)">
            <g id="ani-fake" transform="translate(137.000000, 399.000000)">
                <path d="M9.9817142,113.584 L11.9257142,114.712 C11.2777142,116.824 10.4377142,119.488 9.7177142,121.384 C11.2537142,123.28 11.5417142,124.936 11.5417142,126.328 C11.5417142,127.912 11.2057142,128.896 10.4137142,129.472 C10.0537142,129.76 9.5737142,129.928 9.0217142,130 C8.5657142,130.072 7.9657142,130.072 7.4137142,130.072 C7.3897142,129.328 7.1737142,128.224 6.7657142,127.504 C7.1977142,127.552 7.5577142,127.552 7.8217142,127.528 C8.0857142,127.528 8.3257142,127.48 8.5417142,127.336 C8.8297142,127.12 8.9497142,126.64 8.9497142,125.944 C8.9497142,124.84 8.6137142,123.304 7.2217142,121.672 C7.7497142,120.136 8.2777142,117.928 8.6617142,116.248 L6.5497142,116.248 L6.5497142,135.088 L3.8857142,135.088 L3.8857142,113.704 L9.5737142,113.704 L9.9817142,113.584 Z M25.0537142,119.152 L17.3017142,119.152 C17.2537142,120.136 17.2297142,121.072 17.1577142,122.008 L23.7577142,122.008 C23.7577142,122.008 23.7337142,122.848 23.7337142,123.208 C23.4937142,130.192 23.2537142,132.952 22.5337142,133.864 C21.9817142,134.584 21.4297142,134.824 20.6377142,134.944 C19.9417142,135.064 18.7657142,135.064 17.5417142,135.016 C17.4937142,134.176 17.1577142,133 16.6777142,132.184 C17.7577142,132.304 18.7177142,132.328 19.1977142,132.328 C19.5817142,132.328 19.8217142,132.232 20.0137142,131.968 C20.4457142,131.488 20.6857142,129.52 20.8297142,124.6 L16.9177142,124.6 C16.3177142,129.112 14.8297142,132.688 10.6297142,135.016 C10.2697142,134.32 9.4537142,133.336 8.8057142,132.808 C13.9657142,130.096 14.3257142,125.368 14.4697142,119.152 L11.3977142,119.152 L11.3977142,116.512 L17.2297142,116.512 C17.0377142,115.6 16.6297142,114.232 16.2697142,113.176 L18.8857142,112.552 C19.3177142,113.608 19.8217142,115.072 20.0137142,115.936 L18.0457142,116.512 L25.0537142,116.512 L25.0537142,119.152 Z M38.9508571,117.184 L36.3348571,118.384 C36.0228571,117.52 35.2308571,116.248 34.5108571,115.216 C34.0308571,116.32 33.5028571,117.4 32.9028571,118.432 L32.9028571,135.04 L30.1668571,135.04 L30.1668571,122.608 C29.6148571,123.328 29.0628571,123.976 28.5108571,124.576 C28.2468571,123.88 27.4308571,122.344 26.9268571,121.648 C29.1108571,119.488 31.2228571,116.128 32.4468571,112.744 L35.1828571,113.608 C35.0148571,114.064 34.8228571,114.496 34.6308571,114.952 L36.8388571,113.968 C37.5828571,114.952 38.5428571,116.272 38.9508571,117.184 Z M41.9748571,118.624 L49.0788571,118.624 C49.0788571,118.624 49.0788571,119.56 49.0548571,119.944 C48.7908571,129.04 48.5028571,132.4 47.6628571,133.504 C47.0628571,134.344 46.4628571,134.584 45.5748571,134.752 C44.7828571,134.896 43.4868571,134.848 42.1908571,134.824 C42.1428571,134.008 41.7828571,132.808 41.3028571,132.016 C42.5268571,132.136 43.6068571,132.136 44.1588571,132.136 C44.5908571,132.136 44.8308571,132.04 45.0468571,131.752 C45.6228571,131.104 45.8868571,128.32 46.0788571,121.408 L41.7348571,121.408 C41.6148571,122.392 41.4468571,123.352 41.2548571,124.312 L42.8628571,123.472 C43.8468571,124.696 45.0468571,126.4 45.5268571,127.504 L43.0068571,128.92 C42.5988571,127.984 41.8068571,126.616 40.9908571,125.416 C40.0548571,129.136 38.3268571,132.616 35.1348571,135.16 C34.6308571,134.464 33.7668571,133.6 32.9508571,133.096 C36.8388571,130.216 38.2788571,125.848 38.8308571,121.408 L34.3428571,121.408 L34.3428571,118.624 L39.0708571,118.624 C39.1908571,116.68 39.1668571,114.784 39.1908571,113.032 L42.1668571,113.032 C42.1428571,114.808 42.1188571,116.704 41.9748571,118.624 Z M57.72,127.672 L57.936,129.784 C55.896,130.264 53.784,130.768 52.008,131.176 L51.552,128.968 C53.16,128.68 55.416,128.176 57.72,127.672 Z M64.08,119.992 L70.44,119.992 C69.216,118.912 68.064,117.76 67.056,116.584 C66.168,117.832 65.136,118.96 64.08,119.992 Z M63.696,122.392 L63.696,120.352 C62.904,121.048 62.136,121.672 61.32,122.224 C61.008,121.672 60.168,120.472 59.688,119.92 C59.592,121.312 59.472,122.656 59.352,123.736 L61.2,123.736 C61.2,123.736 61.176,124.456 61.152,124.768 C60.864,130.72 60.552,133.072 59.832,133.888 C59.328,134.512 58.776,134.704 58.008,134.8 C57.384,134.872 56.232,134.872 55.08,134.824 C55.056,134.128 54.792,133.192 54.384,132.544 C55.44,132.64 56.448,132.664 56.88,132.664 C57.288,132.664 57.48,132.616 57.72,132.376 C58.152,131.896 58.44,130.168 58.656,125.968 L52.464,125.968 C52.752,123.808 52.992,120.256 53.088,117.544 L55.512,117.688 C55.416,119.584 55.248,121.84 55.08,123.76 L56.952,123.76 C57.216,121.624 57.432,118.672 57.576,115.936 L52.152,115.936 L52.152,113.536 L60.072,113.536 C59.976,115.504 59.832,117.808 59.664,119.92 C62.472,118.216 65.136,115.432 66.624,112.384 L69.096,113.248 C68.904,113.632 68.688,114.016 68.472,114.4 C70.08,116.224 72.432,118.192 74.568,119.344 C74.088,120.064 73.536,121.384 73.272,122.176 C72.552,121.696 71.832,121.168 71.088,120.544 L71.088,122.392 L63.696,122.392 Z M69.384,129.28 L67.104,129.616 C66.984,128.08 66.576,125.728 66.216,123.952 L68.376,123.64 C68.808,125.44 69.24,127.72 69.384,129.28 Z M65.64,129.64 L63.336,130.288 C63.168,128.752 62.592,126.4 62.088,124.624 L64.248,124.048 C64.848,125.824 65.4,128.128 65.64,129.64 Z M71.376,123.784 L73.968,124.336 C73.104,126.76 72.048,129.568 71.064,131.632 L73.92,131.632 L73.92,134.032 L61.488,134.032 L61.488,131.632 L68.664,131.632 C69.672,129.448 70.824,126.208 71.376,123.784 Z M82.7531429,127.216 L82.7531429,128.32 L92.1611429,128.32 L92.1611429,127.216 L82.7531429,127.216 Z M92.1611429,119.536 L82.7531429,119.536 L82.7531429,120.568 L92.1611429,120.568 L92.1611429,119.536 Z M92.1611429,124.672 L82.7531429,124.672 L82.7531429,125.608 L92.1611429,125.608 L92.1611429,124.672 Z M92.1611429,123.088 L92.1611429,122.176 L82.7531429,122.176 L82.7531429,123.088 L92.1611429,123.088 Z M98.1371429,130.672 L91.7771429,130.672 C94.2251429,131.416 96.8171429,132.4 98.4011429,133.168 L96.0251429,135.088 C94.4411429,134.224 91.7531429,133.048 89.1131429,132.256 L90.6491429,130.672 L83.6411429,130.672 L85.8731429,132.232 C83.9771429,133.384 81.0011429,134.536 78.6251429,135.112 C78.1691429,134.56 77.3051429,133.696 76.6811429,133.168 C79.0091429,132.64 81.8171429,131.608 83.3531429,130.672 L76.8011429,130.672 L76.8011429,128.32 L79.9931429,128.32 L79.9931429,117.76 L85.7291429,117.76 C85.8011429,117.424 85.8731429,117.064 85.9451429,116.68 L77.4491429,116.68 L77.4491429,114.304 L86.2811429,114.304 C86.3291429,113.704 86.4011429,113.128 86.4251429,112.624 L89.4251429,112.912 L89.1851429,114.304 L97.5611429,114.304 L97.5611429,116.68 L88.7291429,116.68 C88.6331429,117.064 88.5851429,117.424 88.5131429,117.76 L95.0411429,117.76 L95.0411429,128.32 L98.1371429,128.32 L98.1371429,130.672 Z" id="防伪验真" fill="#FFFFFF"></path>
                <g id="barcode-(1)" fill-rule="nonzero">
                    <circle id="Oval" fill="#83CF8F" cx="50.9053567" cy="50.9005848" r="50.9005848"></circle>
                    <polygon id="Shape" fill="#FFFFFF" points="12.8889825 23.9789474 87.7685146 24.0187135 87.1322573 61.3789474 12.2726082 61.2994152"></polygon>
                    <g id="Group" transform="translate(16.701754, 26.444444)" fill="#C6CBD6">
                        <path d="M0.998923977,0.139181287 L2.33108772,0.139181287 L1.81412865,28.8502924 L0.481964912,28.8502924 L0.998923977,0.139181287 Z M44.0258246,7.15789474 L43.3100351,7.15789474 L42.9123743,28.8900585 L43.6281637,28.8900585 L44.0258246,7.15789474 Z M47.7240702,7.15789474 L44.8012632,7.15789474 L44.4036023,28.8900585 L47.3264094,28.8900585 L47.7240702,7.15789474 Z M50.050386,7.15789474 L48.6386901,7.15789474 L48.2410292,28.8900585 L49.6527251,28.8900585 L50.050386,7.15789474 Z M53.1123743,7.15789474 L52.1977544,7.15789474 L51.8000936,28.8900585 L52.7147135,28.8900585 L53.1123743,7.15789474 Z M62.6562339,7.15789474 L63.3720234,7.15789474 L62.9743626,28.8900585 L62.2585731,28.8900585 L62.6562339,7.15789474 Z M58.9579883,7.15789474 L61.8807953,7.15789474 L61.4831345,28.8900585 L58.5603275,28.8900585 L58.9579883,7.15789474 Z M56.6316725,7.15789474 L58.0433684,7.15789474 L57.6457076,28.8900585 L56.2340117,28.8900585 L56.6316725,7.15789474 Z M53.5696842,7.15789474 L54.4843041,7.15789474 L54.0866433,28.8900585 L53.1720234,28.8900585 L53.5696842,7.15789474 Z M30.9825497,0.139181287 L31.4796257,0.139181287 L30.9626667,28.8502924 L30.4655906,28.8502924 L30.9825497,0.139181287 Z M35.0585731,0.139181287 L38.9556491,0.139181287 L38.4386901,28.8502924 L34.541614,28.8502924 L35.0585731,0.139181287 Z M33.3486316,0.139181287 L34.3229006,0.139181287 L33.8059415,28.8502924 L32.8117895,28.8502924 L33.3486316,0.139181287 Z M25.8328421,0.139181287 L29.7299181,0.139181287 L29.2129591,28.8502924 L25.315883,28.8502924 L25.8328421,0.139181287 Z M24.4211462,0.139181287 L25.2562339,0.139181287 L24.7392749,28.8502924 L23.9041871,28.8502924 L24.4211462,0.139181287 Z M22.4129591,0.139181287 L23.3872281,0.139181287 L22.870269,28.8502924 L21.896,28.8502924 L22.4129591,0.139181287 Z M19.6492164,0.139181287 L21.6176374,0.139181287 L21.0807953,28.8502924 L19.1123743,28.8502924 L19.6492164,0.139181287 Z M14.8574035,0.139181287 L18.7544795,0.139181287 L18.2375205,28.8502924 L14.3404444,28.8502924 L14.8574035,0.139181287 Z M12.5509708,0.139181287 L13.3860585,0.139181287 L12.8690994,28.8502924 L12.0340117,28.8502924 L12.5509708,0.139181287 Z M8.23635088,0.139181287 L11.4574035,0.139181287 L10.9404444,28.8502924 L7.71939181,28.8502924 L8.23635088,0.139181287 Z M3.72290058,0.139181287 L5.05506433,0.139181287 L4.53810526,28.8502924 L3.20594152,28.8502924 L3.72290058,0.139181287 Z" id="Shape"></path>
                        <path d="M0.104187135,31.6736842 C0.104187135,31.077193 0.183719298,30.6596491 0.362666667,30.4210526 C0.541614035,30.1824561 0.800093567,30.0631579 1.17787135,30.0631579 C1.35681871,30.0631579 1.496,30.0830409 1.5954152,30.1426901 C1.69483041,30.2023392 1.81412865,30.2818713 1.85389474,30.3614035 C1.9334269,30.4409357 1.99307602,30.5403509 2.01295906,30.619883 C2.07260819,30.7192982 2.09249123,30.8385965 2.11237427,30.9380117 C2.17202339,31.1766082 2.19190643,31.4152047 2.19190643,31.6736842 C2.19190643,32.2502924 2.11237427,32.6678363 1.95330994,32.9263158 C1.79424561,33.1847953 1.53576608,33.3239766 1.13810526,33.3239766 C0.919391813,33.3239766 0.740444444,33.2643275 0.621146199,33.1847953 C0.481964912,33.1052632 0.382549708,32.9660819 0.283134503,32.8269006 C0.22348538,32.7274854 0.183719298,32.548538 0.124070175,32.3497076 C0.104187135,32.1309942 0.0644210526,31.9321637 0.0644210526,31.6736842 L0.104187135,31.6736842 Z M0.819976608,31.6736842 C0.819976608,32.071345 0.839859649,32.3497076 0.899508772,32.5087719 C0.959157895,32.6678363 1.03869006,32.7274854 1.1579883,32.7274854 C1.23752047,32.7274854 1.29716959,32.7076023 1.33693567,32.6280702 C1.3965848,32.5684211 1.43635088,32.4690058 1.43635088,32.3497076 C1.45623392,32.2105263 1.45623392,32.0116959 1.45623392,31.7134503 C1.45623392,31.2959064 1.43635088,30.9976608 1.37670175,30.8783626 C1.31705263,30.7192982 1.21763743,30.6596491 1.11822222,30.6596491 C0.979040936,30.6596491 0.899508772,30.7391813 0.85974269,30.8783626 C0.800093567,31.0374269 0.780210526,31.2959064 0.780210526,31.6935673 L0.819976608,31.6935673 L0.819976608,31.6736842 Z M4.39892398,31.0175439 L3.72290058,30.8584795 C3.78254971,30.6 3.88196491,30.3812865 4.04102924,30.2619883 C4.20009357,30.122807 4.43869006,30.0432749 4.71705263,30.0432749 C5.05506433,30.0432749 5.29366082,30.122807 5.45272515,30.2818713 C5.61178947,30.4409357 5.69132164,30.619883 5.69132164,30.8584795 C5.69132164,30.9976608 5.6714386,31.1169591 5.61178947,31.2163743 C5.55214035,31.3157895 5.45272515,31.4350877 5.35330994,31.4947368 C5.45272515,31.5146199 5.53225731,31.574269 5.59190643,31.594152 C5.6714386,31.6538012 5.75097076,31.7532164 5.81061988,31.8526316 C5.87026901,31.9520468 5.89015205,32.0912281 5.89015205,32.2105263 C5.89015205,32.3894737 5.83050292,32.5684211 5.75097076,32.7274854 C5.6714386,32.8865497 5.57202339,33.005848 5.41295906,33.1251462 C5.25389474,33.2046784 5.07494737,33.2643275 4.83635088,33.2643275 C4.59775439,33.2643275 4.41880702,33.2444444 4.27962573,33.1649123 C4.14044444,33.0853801 4.04102924,33.005848 3.94161404,32.8865497 C3.86208187,32.7473684 3.78254971,32.6081871 3.72290058,32.3894737 L4.43869006,32.2900585 C4.4585731,32.4690058 4.51822222,32.6081871 4.57787135,32.6479532 C4.63752047,32.7274854 4.71705263,32.7473684 4.81646784,32.7473684 C4.91588304,32.7473684 4.9954152,32.6877193 5.05506433,32.6081871 C5.11471345,32.528655 5.15447953,32.3894737 5.15447953,32.2701754 C5.15447953,32.1111111 5.13459649,32.0116959 5.05506433,31.9321637 C4.9954152,31.8526316 4.896,31.7929825 4.7965848,31.7929825 C4.73693567,31.7929825 4.65740351,31.8128655 4.5579883,31.8526316 L4.57787135,31.2163743 C4.63752047,31.2163743 4.65740351,31.2163743 4.67728655,31.2163743 C4.77670175,31.2163743 4.83635088,31.1964912 4.91588304,31.1169591 C4.97553216,31.0374269 5.01529825,30.9578947 5.01529825,30.8584795 C5.01529825,30.7590643 4.9954152,30.6795322 4.93576608,30.619883 C4.87611696,30.5602339 4.83635088,30.5403509 4.75681871,30.5403509 C4.67728655,30.5403509 4.59775439,30.5602339 4.53810526,30.6397661 C4.47845614,30.6994152 4.4585731,30.8187135 4.43869006,30.9578947 L4.39892398,31.0175439 Z M8.53459649,32.6678363 L7.22231579,32.6678363 L7.22231579,31.9321637 L8.53459649,30.0233918 L9.1708538,30.0233918 L9.1708538,31.9520468 L9.48898246,31.9520468 L9.48898246,32.6280702 L9.15097076,32.6280702 L9.15097076,33.2245614 L8.51471345,33.2245614 L8.51471345,32.6280702 L8.51471345,32.6678363 L8.53459649,32.6678363 Z M8.53459649,31.9918129 L8.53459649,30.9976608 L7.8585731,31.9918129 L8.53459649,31.9918129 Z M11.5965848,31.0175439 L10.9205614,30.8584795 C10.9802105,30.6 11.0796257,30.3812865 11.2386901,30.2619883 C11.3977544,30.122807 11.6363509,30.0432749 11.9147135,30.0432749 C12.2527251,30.0432749 12.4913216,30.122807 12.650386,30.2818713 C12.8094503,30.4409357 12.8889825,30.619883 12.8889825,30.8584795 C12.8889825,30.9976608 12.8690994,31.1169591 12.7895673,31.2163743 C12.7299181,31.3157895 12.6305029,31.4350877 12.5310877,31.4947368 C12.6305029,31.5146199 12.7100351,31.574269 12.7696842,31.594152 C12.8492164,31.6538012 12.9287485,31.7532164 12.9883977,31.8526316 C13.0480468,31.9520468 13.0679298,32.0912281 13.0679298,32.2105263 C13.0679298,32.3894737 13.0082807,32.5684211 12.9287485,32.7274854 C12.8492164,32.8865497 12.7498012,33.005848 12.5907368,33.1251462 C12.4316725,33.2046784 12.2527251,33.2643275 12.0141287,33.2643275 C11.7755322,33.2643275 11.5965848,33.2444444 11.4574035,33.1649123 C11.3182222,33.0853801 11.218807,33.005848 11.1193918,32.8865497 C11.0398596,32.7473684 10.9603275,32.6081871 10.9006784,32.3894737 L11.6164678,32.2900585 C11.6363509,32.4690058 11.696,32.6081871 11.7556491,32.6479532 C11.8152982,32.7274854 11.8948304,32.7473684 11.9942456,32.7473684 C12.0936608,32.7473684 12.173193,32.6877193 12.2328421,32.6081871 C12.2924912,32.528655 12.3322573,32.3894737 12.3322573,32.2701754 C12.3322573,32.1111111 12.3123743,32.0116959 12.2328421,31.9321637 C12.173193,31.8526316 12.0737778,31.7929825 11.9743626,31.7929825 C11.9147135,31.7929825 11.8351813,31.8128655 11.7357661,31.8526316 L11.7556491,31.2163743 C11.8152982,31.2163743 11.8351813,31.2163743 11.8550643,31.2163743 C11.9544795,31.2163743 12.0141287,31.1964912 12.0936608,31.1169591 C12.1533099,31.0374269 12.193076,30.9578947 12.193076,30.8584795 C12.193076,30.7590643 12.173193,30.6795322 12.1135439,30.619883 C12.0538947,30.5602339 12.0141287,30.5403509 11.9345965,30.5403509 C11.8550643,30.5403509 11.7755322,30.5602339 11.715883,30.6397661 C11.6562339,30.6994152 11.6363509,30.8187135 11.6164678,30.9578947 L11.6164678,31.0175439 L11.5965848,31.0175439 Z M16.5872281,30.8187135 L15.8714386,30.9181287 C15.8515556,30.7789474 15.8117895,30.6994152 15.7720234,30.6596491 C15.7322573,30.619883 15.6726082,30.580117 15.6129591,30.580117 C15.5135439,30.580117 15.3942456,30.6596491 15.3544795,30.7988304 C15.2948304,30.8982456 15.2749474,31.1169591 15.2550643,31.4549708 C15.3345965,31.3555556 15.4340117,31.2760234 15.5135439,31.2163743 C15.593076,31.1567251 15.6924912,31.1368421 15.8316725,31.1368421 C16.070269,31.1368421 16.2492164,31.2362573 16.4082807,31.4549708 C16.567345,31.6736842 16.6468772,31.9321637 16.6468772,32.2105263 C16.6468772,32.4292398 16.5872281,32.6081871 16.5076959,32.7871345 C16.4281637,32.9660819 16.3287485,33.1052632 16.1696842,33.1847953 C16.0305029,33.2643275 15.8515556,33.3239766 15.6129591,33.3239766 C15.3544795,33.3239766 15.1357661,33.2643275 14.9767018,33.1649123 C14.8176374,33.0654971 14.6983392,32.8865497 14.618807,32.6479532 C14.5193918,32.4093567 14.4796257,32.0912281 14.4796257,31.7134503 C14.4796257,31.1368421 14.5790409,30.7192982 14.7579883,30.4608187 C14.9369357,30.2023392 15.2351813,30.0631579 15.573193,30.0631579 C15.7919064,30.0631579 15.9310877,30.0830409 16.070269,30.1426901 C16.2094503,30.2023392 16.2889825,30.2818713 16.3486316,30.4011696 C16.4281637,30.5005848 16.4878129,30.6596491 16.5275789,30.8187135 L16.5872281,30.8187135 Z M15.2749474,32.2304094 C15.2749474,32.4093567 15.2948304,32.548538 15.3743626,32.6280702 C15.4538947,32.7274854 15.5334269,32.7871345 15.6328421,32.7871345 C15.7322573,32.7871345 15.8117895,32.7274854 15.8714386,32.6479532 C15.9310877,32.5684211 15.9708538,32.4292398 15.9708538,32.2502924 C15.9708538,32.071345 15.9509708,31.9321637 15.8714386,31.8327485 C15.7919064,31.7333333 15.7123743,31.6935673 15.6328421,31.6935673 C15.5334269,31.6935673 15.4538947,31.7532164 15.3743626,31.8327485 C15.2948304,31.9122807 15.2749474,32.0315789 15.2749474,32.2304094 Z M20.2258246,33.2643275 L18.0784561,33.2643275 C18.0983392,33.005848 18.1778713,32.7672515 18.3170526,32.528655 C18.4562339,32.2900585 18.6749474,32.0315789 19.0328421,31.7134503 C19.2515556,31.5345029 19.3708538,31.3754386 19.4305029,31.2760234 C19.490152,31.1766082 19.5100351,31.097076 19.5100351,30.9976608 C19.5100351,30.8982456 19.490152,30.8187135 19.4305029,30.7590643 C19.3708538,30.6795322 19.2913216,30.6596491 19.2117895,30.6596491 C19.1322573,30.6596491 19.0527251,30.6795322 18.973193,30.7590643 C18.9135439,30.8385965 18.8737778,30.9380117 18.8737778,31.1169591 L18.1579883,31.0374269 C18.1778713,30.7789474 18.2375205,30.6 18.3170526,30.4608187 C18.3965848,30.3216374 18.496,30.2222222 18.6351813,30.1426901 C18.7743626,30.0631579 18.9533099,30.0432749 19.2117895,30.0432749 C19.470269,30.0432749 19.6492164,30.0631579 19.7883977,30.1426901 C19.9275789,30.2222222 20.0468772,30.3216374 20.1264094,30.4608187 C20.2059415,30.619883 20.2655906,30.7789474 20.2655906,30.9578947 C20.2655906,31.1368421 20.2059415,31.3157895 20.1264094,31.5146199 C20.0269942,31.6935673 19.8679298,31.8725146 19.6293333,32.0912281 C19.470269,32.2304094 19.3907368,32.3099415 19.3509708,32.3497076 C19.3112047,32.3894737 19.2515556,32.4491228 19.1720234,32.528655 L20.3053567,32.528655 L20.3053567,33.2444444 L20.2258246,33.2643275 Z M22.0152982,30.102924 L23.7053567,30.102924 L23.7053567,30.8187135 L22.5521404,30.8187135 L22.4924912,31.2959064 C22.5720234,31.2362573 22.6515556,31.2163743 22.7310877,31.1964912 C22.8106199,31.1766082 22.890152,31.1766082 22.9696842,31.1766082 C23.2281637,31.1766082 23.4468772,31.2760234 23.6059415,31.4549708 C23.7650058,31.6339181 23.844538,31.8923977 23.844538,32.1906433 C23.844538,32.4093567 23.7848889,32.5883041 23.7053567,32.7871345 C23.6258246,32.9660819 23.4866433,33.1251462 23.367345,33.2245614 C23.2082807,33.3239766 23.0293333,33.3836257 22.7907368,33.3836257 C22.6316725,33.3836257 22.4726082,33.3637427 22.3533099,33.3239766 C22.2141287,33.2643275 22.1147135,33.2245614 22.0351813,33.1450292 C21.9556491,33.0654971 21.876117,32.9859649 21.8164678,32.8865497 C21.7568187,32.7871345 21.7170526,32.6479532 21.6772865,32.528655 L22.4129591,32.4292398 C22.4328421,32.5684211 22.4726082,32.6877193 22.5521404,32.7473684 C22.6117895,32.8269006 22.6913216,32.8467836 22.7907368,32.8467836 C22.890152,32.8467836 22.9696842,32.7871345 23.0293333,32.7076023 C23.1088655,32.6081871 23.1287485,32.4690058 23.1287485,32.2900585 C23.1287485,32.1111111 23.1088655,31.9719298 23.0293333,31.8725146 C22.9498012,31.7929825 22.870269,31.7333333 22.7708538,31.7333333 C22.6913216,31.7333333 22.6316725,31.7532164 22.5521404,31.7929825 C22.4924912,31.8128655 22.4527251,31.8725146 22.393076,31.9520468 L21.7965848,31.8526316 L22.0351813,30.1625731 L22.0152982,30.102924 Z M27.4036023,30.8187135 L26.6878129,30.9181287 C26.6679298,30.7789474 26.6281637,30.6994152 26.5883977,30.6596491 C26.5486316,30.619883 26.4889825,30.580117 26.4293333,30.580117 C26.3299181,30.580117 26.2106199,30.6596491 26.1708538,30.7988304 C26.1112047,30.8982456 26.0913216,31.1169591 26.0714386,31.4549708 C26.1509708,31.3555556 26.250386,31.2760234 26.3299181,31.2163743 C26.4094503,31.1567251 26.5088655,31.1368421 26.6480468,31.1368421 C26.8866433,31.1368421 27.0655906,31.2362573 27.224655,31.4549708 C27.3837193,31.6736842 27.4632515,31.9321637 27.4632515,32.2105263 C27.4632515,32.4292398 27.4036023,32.6081871 27.3240702,32.7871345 C27.244538,32.9660819 27.1451228,33.1052632 26.9860585,33.1847953 C26.8468772,33.2643275 26.6679298,33.3239766 26.4293333,33.3239766 C26.1708538,33.3239766 25.9521404,33.2643275 25.793076,33.1649123 C25.6340117,33.0654971 25.5147135,32.8865497 25.4351813,32.6479532 C25.3357661,32.4093567 25.296,32.0912281 25.296,31.7134503 C25.296,31.1368421 25.3954152,30.7192982 25.5743626,30.4608187 C25.7533099,30.2023392 26.0515556,30.0631579 26.3895673,30.0631579 C26.6082807,30.0631579 26.747462,30.0830409 26.8866433,30.1426901 C27.0258246,30.2023392 27.1053567,30.2818713 27.1650058,30.4011696 C27.244538,30.5005848 27.3041871,30.6596491 27.3439532,30.8187135 L27.4036023,30.8187135 Z M26.0913216,32.2304094 C26.0913216,32.4093567 26.1112047,32.548538 26.1907368,32.6280702 C26.270269,32.7274854 26.3498012,32.7871345 26.4492164,32.7871345 C26.5486316,32.7871345 26.6281637,32.7274854 26.6878129,32.6479532 C26.747462,32.5684211 26.7872281,32.4292398 26.7872281,32.2502924 C26.7872281,32.071345 26.767345,31.9321637 26.6878129,31.8327485 C26.6082807,31.7333333 26.5287485,31.6935673 26.4492164,31.6935673 C26.3498012,31.6935673 26.270269,31.7532164 26.1907368,31.8327485 C26.1310877,31.9122807 26.0913216,32.0315789 26.0913216,32.2304094 Z M30.8234854,31.0175439 L30.147462,30.8584795 C30.2071111,30.6 30.3065263,30.3812865 30.4655906,30.2619883 C30.624655,30.122807 30.8632515,30.0432749 31.141614,30.0432749 C31.4796257,30.0432749 31.7182222,30.122807 31.8772865,30.2818713 C32.0363509,30.4409357 32.115883,30.619883 32.115883,30.8584795 C32.115883,30.9976608 32.096,31.1169591 32.0363509,31.2163743 C31.9767018,31.3157895 31.8772865,31.4350877 31.7778713,31.4947368 C31.8772865,31.5146199 31.9568187,31.574269 32.0164678,31.594152 C32.096,31.6538012 32.1755322,31.7532164 32.2351813,31.8526316 C32.2948304,31.9520468 32.3147135,32.0912281 32.3147135,32.2105263 C32.3147135,32.3894737 32.2948304,32.5684211 32.1755322,32.7274854 C32.096,32.8865497 31.9965848,33.005848 31.8375205,33.1251462 C31.6784561,33.2046784 31.4995088,33.2643275 31.2609123,33.2643275 C31.0223158,33.2643275 30.8433684,33.2444444 30.7041871,33.1649123 C30.5650058,33.0853801 30.4655906,33.005848 30.3661754,32.8865497 C30.2866433,32.7473684 30.2071111,32.6081871 30.147462,32.3894737 L30.8632515,32.2900585 C30.8831345,32.4690058 30.9427836,32.6081871 31.0024327,32.6479532 C31.0620819,32.7274854 31.141614,32.7473684 31.2410292,32.7473684 C31.3404444,32.7473684 31.4199766,32.6877193 31.4796257,32.6081871 C31.5392749,32.528655 31.5790409,32.3894737 31.5790409,32.2701754 C31.5790409,32.1111111 31.5591579,32.0116959 31.4796257,31.9321637 C31.4199766,31.8526316 31.3205614,31.7929825 31.2211462,31.7929825 C31.1614971,31.7929825 31.0819649,31.8128655 30.9825497,31.8526316 L31.0024327,31.2163743 C31.0620819,31.2163743 31.0819649,31.2163743 31.101848,31.2163743 C31.2012632,31.2163743 31.2807953,31.1964912 31.3404444,31.1169591 C31.4000936,31.0374269 31.4398596,30.9578947 31.4398596,30.8584795 C31.4398596,30.7590643 31.4199766,30.6795322 31.3603275,30.619883 C31.3006784,30.5602339 31.2609123,30.5403509 31.1813801,30.5403509 C31.101848,30.5403509 31.0223158,30.5602339 30.9626667,30.6397661 C30.9030175,30.6994152 30.8831345,30.8187135 30.8632515,30.9578947 L30.8234854,31.0175439 Z M35.8340117,30.8187135 L35.1182222,30.9181287 C35.0983392,30.7789474 35.0585731,30.6994152 35.018807,30.6596491 C34.9790409,30.619883 34.9193918,30.580117 34.8597427,30.580117 C34.7603275,30.580117 34.6410292,30.6596491 34.6012632,30.7988304 C34.541614,30.8982456 34.521731,31.1169591 34.501848,31.4549708 C34.5813801,31.3555556 34.6807953,31.2760234 34.7603275,31.2163743 C34.8398596,31.1567251 34.9392749,31.1368421 35.0784561,31.1368421 C35.3170526,31.1368421 35.496,31.2362573 35.6550643,31.4549708 C35.8141287,31.6736842 35.8936608,31.9321637 35.8936608,32.2105263 C35.8936608,32.4292398 35.8340117,32.6081871 35.7544795,32.7871345 C35.6749474,32.9660819 35.5755322,33.1052632 35.4164678,33.1847953 C35.2772865,33.2643275 35.0983392,33.3239766 34.8995088,33.3239766 C34.6410292,33.3239766 34.4223158,33.2643275 34.2632515,33.1649123 C34.1041871,33.0654971 33.9848889,32.8865497 33.9053567,32.6479532 C33.8059415,32.4093567 33.7661754,32.0912281 33.7661754,31.7134503 C33.7661754,31.1368421 33.8655906,30.7192982 34.044538,30.4608187 C34.2234854,30.2023392 34.521731,30.0631579 34.8597427,30.0631579 C35.0784561,30.0631579 35.2176374,30.0830409 35.3568187,30.1426901 C35.496,30.2023392 35.5755322,30.2818713 35.6351813,30.4011696 C35.7147135,30.5005848 35.7743626,30.6596491 35.8141287,30.8187135 L35.8340117,30.8187135 Z M34.521731,32.2304094 C34.521731,32.4093567 34.541614,32.548538 34.6211462,32.6280702 C34.7006784,32.7274854 34.7802105,32.7871345 34.8796257,32.7871345 C34.9790409,32.7871345 35.0585731,32.7274854 35.1182222,32.6479532 C35.1778713,32.5684211 35.2176374,32.4292398 35.2176374,32.2502924 C35.2176374,32.071345 35.1977544,31.9321637 35.1182222,31.8327485 C35.0386901,31.7333333 34.9591579,31.6935673 34.8796257,31.6935673 C34.7802105,31.6935673 34.7006784,31.7532164 34.6211462,31.8327485 C34.541614,31.9122807 34.521731,32.0315789 34.521731,32.2304094 Z M37.3650058,30.102924 L39.4527251,30.102924 L39.4527251,30.6994152 C39.2737778,30.9181287 39.1147135,31.1169591 39.0152982,31.3555556 C38.8562339,31.6339181 38.7568187,31.9520468 38.6772865,32.2900585 C38.5977544,32.548538 38.5778713,32.8865497 38.5381053,33.2643275 L37.8223158,33.2643275 C37.8819649,32.7473684 37.9813801,32.3298246 38.0807953,31.9520468 C38.2199766,31.6140351 38.398924,31.2163743 38.6574035,30.8187135 L37.3848889,30.8187135 L37.3848889,30.0830409 L37.3650058,30.0830409 L37.3650058,30.102924 Z M42.5942456,30.0432749 L42.5942456,33.2643275 L41.8585731,33.2643275 L41.8585731,31.1368421 C41.7591579,31.2362573 41.6199766,31.3555556 41.5205614,31.3953216 C41.4211462,31.4748538 41.2819649,31.5345029 41.1030175,31.574269 L41.1030175,30.8584795 C41.341614,30.7590643 41.5404444,30.6397661 41.6796257,30.5204678 C41.818807,30.3812865 41.9182222,30.2023392 41.9977544,30.0233918 L42.5942456,30.0233918 L42.5942456,30.0432749 Z M46.670269,33.2643275 L44.5229006,33.2643275 C44.5427836,33.005848 44.6223158,32.7672515 44.7614971,32.528655 C44.9006784,32.2900585 45.1193918,32.0315789 45.4772865,31.7134503 C45.696,31.5345029 45.8152982,31.3754386 45.8749474,31.2760234 C45.9345965,31.1766082 45.9544795,31.097076 45.9544795,30.9976608 C45.9544795,30.8982456 45.9345965,30.8187135 45.8749474,30.7590643 C45.8152982,30.6795322 45.7357661,30.6596491 45.6562339,30.6596491 C45.5568187,30.6596491 45.4971696,30.6795322 45.4176374,30.7590643 C45.3579883,30.8385965 45.3182222,30.9380117 45.3182222,31.1169591 L44.6024327,31.0374269 C44.6223158,30.7789474 44.6819649,30.6 44.7614971,30.4608187 C44.8410292,30.3216374 44.9404444,30.2222222 45.0796257,30.1426901 C45.218807,30.0631579 45.3977544,30.0432749 45.6562339,30.0432749 C45.9147135,30.0432749 46.0936608,30.0631579 46.2527251,30.1426901 C46.3919064,30.2222222 46.5112047,30.3216374 46.5907368,30.4608187 C46.670269,30.619883 46.7299181,30.7789474 46.7299181,30.9578947 C46.7299181,31.1368421 46.670269,31.3157895 46.5907368,31.5146199 C46.4913216,31.6935673 46.3322573,31.8725146 46.0936608,32.0912281 C45.9345965,32.2304094 45.8550643,32.3099415 45.8152982,32.3497076 C45.7755322,32.3894737 45.715883,32.4491228 45.6363509,32.528655 L46.7696842,32.528655 L46.7696842,33.2444444 L46.670269,33.2643275 Z M48.4796257,30.102924 L50.1696842,30.102924 L50.1696842,30.8187135 L49.0164678,30.8187135 L48.9568187,31.2959064 C49.0363509,31.2362573 49.115883,31.2163743 49.1954152,31.1964912 C49.2749474,31.1766082 49.3544795,31.1766082 49.4340117,31.1766082 C49.6924912,31.1766082 49.9112047,31.2760234 50.070269,31.4549708 C50.2293333,31.6339181 50.3088655,31.8923977 50.3088655,32.1906433 C50.3088655,32.4093567 50.2492164,32.5883041 50.1696842,32.7871345 C50.090152,32.9660819 49.9509708,33.1251462 49.8316725,33.2245614 C49.6726082,33.3239766 49.4936608,33.3836257 49.2550643,33.3836257 C49.096,33.3836257 48.9369357,33.3637427 48.8176374,33.3239766 C48.6784561,33.2643275 48.5790409,33.2245614 48.4995088,33.1450292 C48.4199766,33.0654971 48.3404444,32.9859649 48.2807953,32.8865497 C48.2211462,32.7871345 48.1813801,32.6479532 48.141614,32.528655 L48.8772865,32.4292398 C48.8971696,32.5684211 48.9369357,32.6877193 49.0164678,32.7473684 C49.076117,32.8269006 49.1556491,32.8467836 49.2550643,32.8467836 C49.3544795,32.8467836 49.4340117,32.7871345 49.4936608,32.7076023 C49.573193,32.6081871 49.593076,32.4690058 49.593076,32.2900585 C49.593076,32.1111111 49.573193,31.9719298 49.4936608,31.8725146 C49.4141287,31.7929825 49.3345965,31.7333333 49.2351813,31.7333333 C49.1556491,31.7333333 49.096,31.7532164 49.0164678,31.7929825 C48.9568187,31.8128655 48.9170526,31.8725146 48.8574035,31.9520468 L48.2609123,31.8526316 L48.4995088,30.1625731 L48.4796257,30.102924 Z M53.0328421,32.6678363 L51.7205614,32.6678363 L51.7205614,31.9321637 L53.0328421,30.0233918 L53.6690994,30.0233918 L53.6690994,31.9520468 L53.9872281,31.9520468 L53.9872281,32.6280702 L53.6690994,32.6280702 L53.6690994,33.2245614 L53.0328421,33.2245614 L53.0328421,32.6280702 L53.0328421,32.6678363 Z M53.0328421,31.9918129 L53.0328421,30.9976608 L52.3568187,31.9918129 L53.0328421,31.9918129 Z M58.6796257,30.8187135 L57.9638363,30.9181287 C57.9439532,30.7789474 57.9041871,30.6994152 57.8644211,30.6596491 C57.824655,30.619883 57.7650058,30.580117 57.7053567,30.580117 C57.6059415,30.580117 57.4866433,30.6596491 57.4468772,30.7988304 C57.3872281,30.8982456 57.367345,31.1169591 57.347462,31.4549708 C57.4269942,31.3555556 57.5264094,31.2760234 57.6059415,31.2163743 C57.6854737,31.1567251 57.7848889,31.1368421 57.9240702,31.1368421 C58.1626667,31.1368421 58.341614,31.2362573 58.5006784,31.4549708 C58.6597427,31.6736842 58.7392749,31.9321637 58.7392749,32.2105263 C58.7392749,32.4292398 58.6796257,32.6081871 58.6000936,32.7871345 C58.5205614,32.9660819 58.4211462,33.1052632 58.2620819,33.1847953 C58.1229006,33.2643275 57.9439532,33.3239766 57.7053567,33.3239766 C57.4468772,33.3239766 57.2281637,33.2643275 57.0690994,33.1649123 C56.9100351,33.0654971 56.7907368,32.8865497 56.7112047,32.6479532 C56.6117895,32.4093567 56.5720234,32.0912281 56.5720234,31.7134503 C56.5720234,31.1368421 56.6714386,30.7192982 56.850386,30.4608187 C57.0293333,30.2023392 57.3275789,30.0631579 57.6655906,30.0631579 C57.8843041,30.0631579 58.0234854,30.0830409 58.1626667,30.1426901 C58.301848,30.2023392 58.3813801,30.2818713 58.4410292,30.4011696 C58.5205614,30.5005848 58.5802105,30.6596491 58.6199766,30.8187135 L58.6796257,30.8187135 Z M57.367345,32.2304094 C57.367345,32.4093567 57.3872281,32.548538 57.4667602,32.6280702 C57.5462924,32.7274854 57.6258246,32.7871345 57.7252398,32.7871345 C57.824655,32.7871345 57.9041871,32.7274854 57.9638363,32.6479532 C58.0234854,32.5684211 58.0632515,32.4292398 58.0632515,32.2502924 C58.0632515,32.071345 58.0433684,31.9321637 57.9638363,31.8327485 C57.8843041,31.7333333 57.8047719,31.6935673 57.7252398,31.6935673 C57.6258246,31.6935673 57.5462924,31.7532164 57.4667602,31.8327485 C57.3872281,31.9122807 57.367345,32.0315789 57.367345,32.2304094 Z M60.9264094,31.0175439 L60.250386,30.8584795 C60.3100351,30.6 60.4094503,30.3812865 60.5685146,30.2619883 C60.7275789,30.122807 60.9661754,30.0432749 61.244538,30.0432749 C61.5825497,30.0432749 61.8211462,30.122807 61.9802105,30.2818713 C62.1392749,30.4409357 62.218807,30.619883 62.218807,30.8584795 C62.218807,30.9976608 62.198924,31.1169591 62.1392749,31.2163743 C62.0796257,31.3157895 61.9802105,31.4350877 61.8807953,31.4947368 C61.9802105,31.5146199 62.0597427,31.574269 62.1193918,31.594152 C62.198924,31.6538012 62.2784561,31.7532164 62.3381053,31.8526316 C62.3977544,31.9520468 62.4176374,32.0912281 62.4176374,32.2105263 C62.4176374,32.3894737 62.3579883,32.5684211 62.2784561,32.7274854 C62.198924,32.8865497 62.0995088,33.005848 61.9404444,33.1251462 C61.7813801,33.2046784 61.6024327,33.2643275 61.3638363,33.2643275 C61.1252398,33.2643275 60.9462924,33.2444444 60.8071111,33.1649123 C60.6679298,33.0853801 60.5685146,33.005848 60.4690994,32.8865497 C60.3895673,32.7473684 60.3100351,32.6081871 60.250386,32.3894737 L60.9661754,32.2900585 C60.9860585,32.4690058 61.0457076,32.6081871 61.1053567,32.6479532 C61.1650058,32.7274854 61.244538,32.7473684 61.3439532,32.7473684 C61.4433684,32.7473684 61.5229006,32.6877193 61.5825497,32.6081871 C61.6421988,32.528655 61.6819649,32.3894737 61.6819649,32.2701754 C61.6819649,32.1111111 61.6620819,32.0116959 61.5825497,31.9321637 C61.5229006,31.8526316 61.4234854,31.7929825 61.3240702,31.7929825 C61.2644211,31.7929825 61.1848889,31.8128655 61.0854737,31.8526316 L61.1053567,31.2163743 C61.1650058,31.2163743 61.1848889,31.2163743 61.2047719,31.2163743 C61.3041871,31.2163743 61.3837193,31.1964912 61.4433684,31.1169591 C61.5030175,31.0374269 61.5427836,30.9578947 61.5427836,30.8584795 C61.5427836,30.7590643 61.5229006,30.6795322 61.4632515,30.619883 C61.4036023,30.5602339 61.3638363,30.5403509 61.2843041,30.5403509 C61.2047719,30.5403509 61.1252398,30.5602339 61.0655906,30.6397661 C61.0059415,30.6994152 60.9860585,30.8187135 60.9661754,30.9578947 L60.9264094,31.0175439 Z" id="Shape"></path>
                    </g>
                    <path d="M63.1135439,63.0491228 L60.1112047,64.7789474 C58.4211462,65.7730994 57.8047719,67.9403509 58.798924,69.6701754 L76.7135439,100.787135 C77.290152,101.761404 78.5427836,102.099415 79.5170526,101.54269 L85.1638363,98.3017544 C86.1381053,97.7450292 86.476117,96.4725146 85.9193918,95.4982456 L68.0047719,64.3812865 C67.0106199,62.6912281 64.8433684,62.0748538 63.1135439,63.0690058 L63.1135439,63.0491228 Z" id="Shape" fill="#FF7069"></path>
                    <polygon id="Shape" fill="#596366" points="62.4375205 61.0011696 58.6796257 63.1684211 60.1112047 65.6736842 63.8690994 63.5064327"></polygon>
                    <path d="M63.1135439,63.0491228 L60.1112047,64.7789474 C58.4211462,65.7730994 57.8047719,67.9403509 58.798924,69.6701754 L61.4632515,74.322807 L70.6690994,69.0339181 L68.0047719,64.3812865 C67.0106199,62.6912281 64.8234854,62.0748538 63.1135439,63.0690058 L63.1135439,63.0491228 Z" id="Shape" fill="#ECF0F1"></path>
                    <path d="M70.1123743,29.3274854 C63.3322573,17.5368421 48.2609123,13.4807018 36.470269,20.2807018 C24.6796257,27.0807018 20.6234854,42.1520468 27.4234854,53.9426901 C34.2234854,65.7333333 49.2749474,69.7894737 61.0655906,62.9894737 C72.8562339,56.1894737 76.9123743,41.1181287 70.1123743,29.3274854 Z M58.8983392,59.2315789 C49.1755322,64.8187135 36.7486316,61.4783626 31.1614971,51.7555556 C25.5743626,42.0327485 28.9147135,29.605848 38.6375205,24.0187135 C48.3603275,18.4315789 60.7872281,21.7719298 66.3743626,31.4947368 C71.9614971,41.2175439 68.6211462,53.6444444 58.8983392,59.2315789 Z" id="Shape" fill="#6C7678"></path>
                    <g id="Group" transform="translate(28.830409, 21.871345)" fill="#FFFFFF">
                        <path d="M20.3252398,0.119298246 C19.2316725,0.119298246 18.1778713,0.21871345 17.1439532,0.377777778 C17.2433684,0.377777778 17.3825497,0.377777778 17.4819649,0.377777778 C28.715883,0.377777778 37.8421988,9.50409357 37.8421988,20.7380117 C37.8421988,26.3847953 35.5357661,31.5146199 31.8375205,35.1929825 C36.6492164,31.6538012 39.7907368,25.9672515 39.7907368,19.5251462 C39.7907368,8.80818713 31.101848,0.0994152047 20.3650058,0.0994152047 L20.3252398,0.0994152047 L20.3252398,0.119298246 Z" id="Shape"></path>
                        <path d="M19.6492164,39.5672515 C20.7427836,39.5672515 21.7965848,39.4678363 22.8305029,39.3087719 C22.7310877,39.3087719 22.5919064,39.3087719 22.4924912,39.3087719 C11.2585731,39.3087719 2.13225731,30.1824561 2.13225731,18.948538 C2.13225731,13.3017544 4.43869006,8.17192982 8.13693567,4.49356725 C3.32523977,8.03274854 0.183719298,13.7192982 0.183719298,20.1614035 C0.183719298,30.8783626 8.87260819,39.5871345 19.6094503,39.5871345 L19.6492164,39.5871345 L19.6492164,39.5672515 Z" id="Shape"></path>
                    </g>
                </g>
            </g>
        </g>
    </g>
</svg>