<?xml version="1.0" encoding="UTF-8"?>
<svg width="113px" height="19px" viewBox="0 0 113 19" version="1.1" xmlns="http://www.w3.org/2000/svg" xmlns:xlink="http://www.w3.org/1999/xlink">
    <!-- Generator: Sketch 51.2 (57519) - http://www.bohemiancoding.com/sketch -->
    <title>logo-w</title>
    <desc>Created with Sketch.</desc>
    <defs></defs>
    <g id="Page-1" stroke="none" stroke-width="1" fill="none" fill-rule="evenodd">
        <g id="首页" transform="translate(-18.000000, -16.000000)">
            <g id="logo-w" transform="translate(18.000000, 16.000000)">
                <g id="logo-w-m">
                    <path d="M56.5721277,1.94195833 L56.5136241,5.28041667 L56.4791631,8.987 L56.5136241,17.572625 L51.2154468,17.572625 L51.2859716,7.62691667 L51.2499078,4.24491667 L51.2154468,1.94195833 L48.3936525,1.97916667 L46.1961631,2.02825 L45.8691844,2.04091667 C45.4989291,2.04091667 45.313,1.32604167 45.313,1.02520833 C45.313,0.760791667 45.4211915,0.610375 45.636773,0.576333333 C45.6992837,0.5605 45.8900213,0.547041667 46.2089858,0.539125 L60.4758369,0.539125 C60.9735177,0.547041667 61.2684397,0.572375 61.3614043,0.614333333 C61.5168794,0.680041667 61.5930142,0.823333333 61.5930142,1.03708333 C61.5930142,1.32129167 61.3950638,2.02825 60.9999645,2.02825 L59.9885745,1.99183333 L57.3142411,1.94195833 L56.5721277,1.94195833" id="Fill-144" fill="#FFFFFE"></path>
                    <path d="M36.5254468,11.9035 C35.2640142,11.9035 34.2398014,10.8925417 34.2398014,9.64566667 C34.2398014,8.39958333 35.2640142,7.38783333 36.5254468,7.38783333 C37.7884823,7.38783333 38.8110922,8.39958333 38.8110922,9.64566667 C38.8110922,10.8925417 37.7884823,11.9035 36.5254468,11.9035 Z M36.5254468,3.43029167 C35.1357872,3.43029167 33.8535177,3.88154167 32.8124752,4.63679167 C33.1995603,4.75395833 33.4840638,5.09833333 33.4840638,5.51791667 C33.4840638,6.03645833 33.0577092,6.45604167 32.5351844,6.45604167 C32.092,6.45604167 31.7369716,6.14808333 31.6335887,5.74275 C30.7576383,6.80991667 30.2335106,8.16683333 30.2335106,9.64566667 C30.2335106,13.079125 33.0504965,15.862625 36.5254468,15.862625 C40.0003972,15.862625 42.8189858,13.079125 42.8189858,9.64566667 C42.8189858,6.213 40.0003972,3.43029167 36.5254468,3.43029167 Z" id="Fill-145" fill="#E3A34A"></path>
                    <path d="M36.5254468,18.06425 C31.8179149,18.06425 28.0039645,14.295125 28.0039645,9.64566667 C28.0039645,4.997 31.8179149,1.22629167 36.5254468,1.22629167 C41.2337801,1.22629167 45.0485319,4.997 45.0485319,9.64566667 C45.0485319,14.295125 41.2337801,18.06425 36.5254468,18.06425 Z M44.5420355,5.25904167 C43.5819362,3.54508333 42.1914752,2.27683333 40.3738582,1.45270833 C39.1356667,0.896166667 37.8509929,0.6175 36.5198369,0.6175 C35.1389929,0.626208333 33.8447021,0.908833333 32.641773,1.46695833 C30.8313688,2.306125 29.4545319,3.57516667 28.5112624,5.2725 C27.744305,6.65395833 27.3620284,8.10429167 27.3620284,9.62745833 C27.3620284,10.8426667 27.6048582,12.0182917 28.0953262,13.1582917 C28.8847234,15.0226667 30.2110709,16.4690417 32.0735674,17.501375 C33.4720426,18.2819583 34.9530638,18.6738333 36.5198369,18.6738333 C38.0016596,18.6738333 39.4169645,18.3286667 40.7641489,17.6383333 C42.601,16.698625 43.9521915,15.321125 44.8201277,13.5082083 C45.3987518,12.2937917 45.6904681,11.0374167 45.6904681,9.73908333 C45.6904681,8.12645833 45.3073901,6.63179167 44.5420355,5.25904167 Z" id="Fill-146" fill="#FFFFFE"></path>
                    <path d="M95.6989787,0.303208333 C95.3695957,0.303208333 94.8807305,0.57 94.8807305,1.00145833 L94.8807305,1.96491667 L94.841461,5.279625 C94.841461,8.66716667 94.9151915,11.0865 94.762922,12.3705833 C94.6122553,13.6570417 94.5729858,14.1755833 94.0993475,14.8754167 C93.1777163,16.23075 91.9106738,16.7326667 89.1882553,16.7326667 C88.8941348,16.7326667 88.9758794,16.7168333 88.5815816,16.684375 L88.5471206,13.791625 L88.567156,7.00308333 L88.6160426,0.539125 L83.2457376,0.539125 C82.9980993,0.539125 82.8001489,0.734666667 82.7905319,0.976125 C82.7897305,0.981666667 82.7865248,0.984833333 82.7865248,0.989583333 L82.7865248,0.996708333 C82.7865248,1.00145833 82.7905319,1.00620833 82.7905319,1.01175 L82.8322057,7.07829167 C82.8402199,10.1737083 82.8602553,12.0238333 82.8923121,12.6310417 C82.9243688,13.23825 83.0942695,13.8122083 83.2048652,14.4027917 C83.4396809,15.6457083 84.150539,16.6075833 84.843766,17.1482917 C85.6027092,17.7420417 86.4946879,18.08325 88.852461,18.08325 C91.5428227,18.08325 93.6168936,17.8805833 94.7236525,16.841125 C95.5907872,16.0344167 96.0852624,15.1912917 96.3232837,13.834375 C96.4394894,13.1772917 96.4066312,11.9169583 96.4450993,11.164875 C96.4851702,10.4127917 96.521234,8.987 96.5492837,6.89145833 L96.6430496,1.91108333 C96.6662908,1.49704167 96.6775106,1.16770833 96.6775106,0.92625 C96.6775106,0.509833333 95.9882908,0.303208333 95.6989787,0.303208333" id="Fill-147" fill="#FFFFFE"></path>
                    <path d="M26.9220496,0.201083333 C26.815461,0.297666667 26.6551773,0.349916667 26.4916879,0.714083333 C25.8794043,2.07575 22.3138936,11.19575 22.3138936,11.19575 L16.9171418,0.539125 L12.906844,0.47025 C12.8868085,0.468666667 12.8715816,0.459166667 12.8515461,0.459166667 C12.8339149,0.459166667 12.8194894,0.467083333 12.8042624,0.468666667 C12.5750567,0.494 12.3939362,0.67925 12.3923333,0.910416667 L12.3923333,0.915958333 C12.3931348,0.965833333 12.4059574,1.01175 12.4211844,1.05529167 C12.4332057,1.08933333 12.4500355,1.118625 12.4692695,1.14870833 L20.9979645,18.0507917 C21.0139929,18.1180833 21.0404397,18.17825 21.0877234,18.2241667 C21.1494326,18.2859167 21.2351844,18.3239167 21.3297518,18.3239167 C21.4475603,18.3239167 21.5461348,18.26375 21.6086454,18.1750833 C21.6431064,18.1244167 21.6679504,18.0674167 21.6719574,18.0025 C22.9494184,14.535 27.9654965,0.912 27.9654965,0.7885 C27.9654965,0.0530416667 27.2321986,-0.078375 26.9220496,0.201083333" id="Fill-148" fill="#FFFFFE"></path>
                    <path d="M106.051702,7.17329167 L110.828957,7.21604167 L111.748184,7.24691667 C112.259489,7.24691667 112.630546,7.008625 112.515142,6.44733333 C112.479879,6.27554167 112.463851,6.153625 112.358064,6.09425 C112.253078,6.034875 112.039099,6.004 111.713723,6.004 L110.817738,6.01825 L107.319546,6.09266667 L106.051702,6.08079167 L106.097383,1.71633333 L111.925298,1.79154167 L112.006241,1.79154167 C112.347645,1.79154167 112.596085,1.46854167 112.517546,0.99275 C112.479879,0.766333333 112.428589,0.625416667 112.249872,0.576333333 C112.173738,0.551 111.857979,0.539125 111.308206,0.539125 L101.506057,0.539125 C101.263227,0.539125 101.067681,0.728333333 101.052454,0.965833333 C101.052454,0.975333333 101.047645,0.981666667 101.047645,0.989583333 L101.047645,0.996708333 C101.047645,1.00620833 101.052454,1.01491667 101.053255,1.023625 L101.141411,8.28795833 L101.09573,12.7553333 L101.082908,16.9234583 L101.082106,16.98125 L101.077298,17.235375 C101.130191,17.4269583 101.300092,17.572625 101.512468,17.572625 L111.20322,17.572625 C111.791461,17.563125 112.114433,17.5567917 112.167326,17.5480833 C112.399738,17.515625 112.622532,17.26625 112.640163,17.01925 C112.673021,16.5426667 112.450227,16.1515833 111.829128,16.1650417 L110.051582,16.1975 L106.109404,16.24025 L106.028461,8.15020833 L106.028461,7.40366667 C106.028461,6.85345833 106.037277,7.55408333 106.051702,7.17329167" id="Fill-149" fill="#FFFFFE"></path>
                    <path d="M5.06416312,7.17329167 L9.8438227,7.21604167 L10.7606454,7.24691667 C11.2727518,7.24691667 11.6422057,7.008625 11.5284043,6.44733333 C11.4923404,6.27554167 11.4763121,6.153625 11.3705248,6.09425 C11.2671418,6.034875 11.0523617,6.004 10.725383,6.004 L9.83019858,6.01825 L6.33200709,6.09266667 L5.06416312,6.08079167 L5.11064539,1.71633333 L10.9385603,1.79154167 L11.0187021,1.79154167 C11.3601064,1.79154167 11.6093475,1.46854167 11.5316099,0.99275 C11.4939433,0.766333333 11.4418511,0.625416667 11.2639362,0.576333333 C11.1861986,0.551 10.8712411,0.539125 10.3206667,0.539125 L0.519319149,0.539125 C0.275687943,0.539125 0.0817446809,0.728333333 0.0673191489,0.965833333 C0.0673191489,0.975333333 0.0609078014,0.981666667 0.0609078014,0.989583333 L0.0609078014,0.996708333 C0.0609078014,1.00620833 0.0673191489,1.01491667 0.0673191489,1.023625 L0.15387234,8.28795833 L0.108191489,12.7553333 L0.0953687943,16.9234583 L0.0953687943,16.98125 L0.0889574468,17.235375 C0.143453901,17.4269583 0.31335461,17.572625 0.525730496,17.572625 L10.2156809,17.572625 C10.8047234,17.563125 11.1260922,17.5567917 11.1789858,17.5480833 C11.4121986,17.515625 11.6357943,17.26625 11.6534255,17.01925 C11.6862837,16.5426667 11.4626879,16.1515833 10.8423901,16.1650417 L9.06484397,16.1975 L5.12266667,16.24025 L5.0417234,8.15020833 L5.0417234,7.40366667 C5.0417234,6.85345833 5.05053901,7.55408333 5.06416312,7.17329167" id="Fill-150" fill="#FFFFFE"></path>
                    <path d="M71.6997021,13.1353333 C71.2196525,12.7569167 70.7676525,12.3492083 70.339695,11.9090417 L70.0928582,11.6026667 L70.0928582,9.56808333 L70.188227,2.03775 C71.8455603,2.05991667 73.1310355,2.23566667 74.0470567,2.56579167 C74.9590709,2.895125 75.719617,3.46116667 76.3254894,4.26154167 C77.1212979,5.29704167 77.5196028,6.4695 77.5196028,7.77970833 C77.5196028,8.552375 77.3617234,9.31 77.0491702,10.0517917 C76.7125745,10.8600833 76.2325248,11.5345833 75.6050142,12.0737083 C74.614461,12.9350417 73.4019149,13.3672917 71.9641702,13.3672917 L71.6997021,13.1353333 Z M78.0108723,16.7302917 C77.0115035,16.5585 76.3431206,16.2362917 75.4807943,15.848375 C74.6160638,15.4620417 74.1480355,15.2467083 73.4043191,14.6996667 C75.4807943,14.35925 76.8175603,13.596875 78.0028582,11.6572917 C78.7385603,10.452375 79.1064113,9.16591667 79.1064113,7.80266667 C79.1064113,6.52095833 78.7786312,5.29704167 78.1182624,4.1325 C77.4058014,2.87770833 76.4368865,1.973625 75.213922,1.42579167 C74.4629929,1.08458333 73.5517801,0.851041667 72.4826879,0.72675 C71.4119929,0.601666667 69.8331986,0.539125 67.7398936,0.539125 L65.3051844,0.539125 C65.1120426,0.539125 64.9493546,0.657083333 64.881234,0.824916667 L64.8820355,1.16691667 L64.9044752,8.07579167 L64.8692128,12.9421667 L64.8475745,17.0105417 L64.8475745,17.1221667 C64.8483759,17.37075 65.0527376,17.572625 65.3051844,17.572625 L70.1169007,17.572625 L70.1169007,16.3629583 L70.104078,14.2405 L70.104078,13.729875 C71.6844752,15.0685833 73.0853546,16.05975 74.309922,16.6994167 C75.7805248,17.4649583 76.9201418,17.8473333 77.734383,17.8473333 C78.0910142,17.8473333 78.3618936,17.7254167 78.3618936,17.4522917 C78.3618936,17.2527917 78.4356241,16.8023333 78.0108723,16.7302917 Z" id="Fill-151" fill="#FFFFFE"></path>
                </g>
            </g>
        </g>
    </g>
</svg>