<?xml version="1.0" encoding="UTF-8"?>
<svg width="121px" height="136px" viewBox="0 0 121 136" version="1.1" xmlns="http://www.w3.org/2000/svg" xmlns:xlink="http://www.w3.org/1999/xlink">
    <!-- Generator: Sketch 51.2 (57519) - http://www.bohemiancoding.com/sketch -->
    <title>scan</title>
    <desc>Created with Sketch.</desc>
    <defs></defs>
    <g id="Page-1" stroke="none" stroke-width="1" fill="none" fill-rule="evenodd">
        <g id="首页" transform="translate(-127.000000, -141.000000)">
            <g id="scan" transform="translate(127.000000, 141.000000)">
                <path d="M9.41314275,125.32 L6.36514275,126.088 L6.36514275,132.016 C6.36514275,133.384 6.10114275,134.08 5.28514275,134.512 C4.49314275,134.944 3.34114275,135.016 1.66114275,135.016 C1.56514275,134.296 1.20514275,133.144 0.86914275,132.424 C1.80514275,132.472 2.78914275,132.448 3.10114275,132.448 C3.43714275,132.448 3.58114275,132.328 3.58114275,131.992 L3.58114275,126.784 C2.59714275,127.048 1.68514275,127.264 0.82114275,127.48 L0.07714275,124.72 C1.08514275,124.528 2.28514275,124.288 3.58114275,123.976 L3.58114275,119.704 L0.38914275,119.704 L0.38914275,117.064 L3.58114275,117.064 L3.58114275,112.816 L6.36514275,112.816 L6.36514275,117.064 L9.07714275,117.064 L9.07714275,119.704 L6.36514275,119.704 L6.36514275,123.352 C7.27714275,123.136 8.16514275,122.92 9.07714275,122.704 L9.41314275,125.32 Z M9.53314275,114.856 L21.3891428,114.856 L21.3891428,134.872 L18.6531428,134.872 L18.6531428,133.528 L9.34114275,133.528 L9.34114275,130.864 L18.6531428,130.864 L18.6531428,125.152 L10.0611428,125.152 L10.0611428,122.344 L18.6531428,122.344 L18.6531428,117.472 L9.53314275,117.472 L9.53314275,114.856 Z M24.7982856,122.104 L46.8302857,122.104 L46.8302857,125.2 L24.7982856,125.2 L24.7982856,122.104 Z M58.3274286,125.32 L55.2794286,126.088 L55.2794286,132.016 C55.2794286,133.384 55.0154285,134.08 54.1994286,134.512 C53.4074286,134.944 52.2554286,135.016 50.5754285,135.016 C50.4794285,134.296 50.1194286,133.144 49.7834286,132.424 C50.7194286,132.472 51.7034286,132.448 52.0154285,132.448 C52.3514286,132.448 52.4954286,132.328 52.4954286,131.992 L52.4954286,126.784 C51.5114286,127.048 50.5994285,127.264 49.7354286,127.48 L48.9914285,124.72 C49.9994286,124.528 51.1994286,124.288 52.4954286,123.976 L52.4954286,119.704 L49.3034286,119.704 L49.3034286,117.064 L52.4954286,117.064 L52.4954286,112.816 L55.2794286,112.816 L55.2794286,117.064 L57.9914285,117.064 L57.9914285,119.704 L55.2794286,119.704 L55.2794286,123.352 C56.1914286,123.136 57.0794286,122.92 57.9914285,122.704 L58.3274286,125.32 Z M58.4474286,114.856 L70.3034286,114.856 L70.3034286,134.872 L67.5674286,134.872 L67.5674286,133.528 L58.2554286,133.528 L58.2554286,130.864 L67.5674286,130.864 L67.5674286,125.152 L58.9754286,125.152 L58.9754286,122.344 L67.5674286,122.344 L67.5674286,117.472 L58.4474286,117.472 L58.4474286,114.856 Z M78.8725715,115.672 L77.0485714,117.52 C76.3765715,116.728 74.9845715,115.504 73.9045715,114.664 L75.6325715,113.032 C76.7365715,113.8 78.1765715,114.904 78.8725715,115.672 Z M78.4165715,121.792 L76.6885715,123.76 C75.9445714,123.064 74.4565714,121.96 73.3285714,121.216 L75.0085715,119.44 C76.0885714,120.112 77.6725714,121.096 78.4165715,121.792 Z M76.0885714,134.728 L73.6165715,133.432 C74.4325714,131.584 75.4885715,128.656 76.2805714,125.992 L78.4885715,127.312 C77.8165714,129.784 76.9285715,132.496 76.0885714,134.728 Z M87.6565715,128.536 L85.6885715,128.536 L85.6885715,127.792 L84.3445715,127.792 C83.9365715,130.36 82.9285715,132.88 80.4565714,134.92 C80.0485714,134.368 79.2325714,133.672 78.6325715,133.216 C80.6005714,131.584 81.5365714,129.688 81.9685714,127.792 L79.0645714,127.792 L79.0645714,120.472 L81.2725715,120.472 L81.2725715,125.608 L82.2565714,125.608 C82.3045714,125.128 82.3045714,124.648 82.3045714,124.192 L82.3045714,119.176 L78.5845714,119.176 L78.5845714,116.896 L80.7205714,116.896 C80.4085715,115.936 79.7365715,114.64 79.1125714,113.632 L81.2005715,112.72 C81.9445715,113.728 82.6885715,115.12 83.0005715,116.08 L81.3205715,116.896 L83.7685714,116.896 C84.2005715,115.672 84.6565715,113.968 84.8965715,112.696 L87.5125715,113.224 C87.0325715,114.496 86.5765714,115.84 86.1445715,116.896 L88.0885714,116.896 L88.0885714,119.176 L84.5845714,119.176 L84.5845714,124.24 C84.5845714,124.672 84.5845714,125.152 84.5605714,125.608 L85.6885715,125.608 L85.6885715,120.448 L87.6565715,120.448 L87.6565715,128.536 Z M90.8965715,124.504 L92.6725714,124.504 L92.6725714,121.336 L90.9445715,121.336 L90.9445715,122.56 C90.9445715,123.16 90.9445715,123.808 90.8965715,124.504 Z M92.6725714,115.888 L90.9445715,115.888 L90.9445715,118.936 L92.6725714,118.936 L92.6725714,115.888 Z M95.0965714,113.416 L95.0965714,132.208 C95.0965714,133.384 94.9045715,134.104 94.2325714,134.56 C93.5605714,134.968 92.6485714,135.04 91.2565714,135.04 C91.1845714,134.344 90.8965715,133.192 90.5605714,132.52 C91.3045714,132.568 92.0725714,132.544 92.3365715,132.544 C92.6005714,132.544 92.6725714,132.448 92.6725714,132.16 L92.6725714,126.904 L90.7285715,126.904 C90.4165715,129.832 89.6485714,132.904 87.8485715,135.112 C87.4885715,134.704 86.5045714,134.08 85.9525715,133.816 C88.4965715,130.696 88.6885715,126.112 88.6885715,122.56 L88.6885715,113.416 L95.0965714,113.416 Z M104.697714,115.192 L102.969714,117.472 C102.105714,116.776 100.305714,115.648 99.0817143,114.904 L100.713714,112.84 C101.913714,113.512 103.785714,114.544 104.697714,115.192 Z M103.545714,121.504 L101.817714,123.808 C100.977714,123.136 99.1777144,122.08 97.9297144,121.336 L99.5377144,119.296 C100.761714,119.896 102.585714,120.88 103.545714,121.504 Z M101.577714,125.536 L103.929714,127.096 C103.017714,129.664 101.889714,132.4 100.833714,134.776 L98.2177144,133.24 C99.2017144,131.368 100.569714,128.32 101.577714,125.536 Z M109.161714,128.128 L111.681714,128.872 C110.937714,130.576 109.809714,132.568 108.921714,133.816 C108.393714,133.384 107.313714,132.736 106.689714,132.424 C107.625714,131.296 108.561714,129.64 109.161714,128.128 Z M111.273714,123.808 L111.273714,125.152 L116.817714,125.152 L116.817714,123.808 L111.273714,123.808 Z M111.273714,120.568 L111.273714,121.888 L116.817714,121.888 L116.817714,120.568 L111.273714,120.568 Z M119.457714,127.192 L115.281714,127.192 L115.281714,132.376 C115.281714,133.6 115.089714,134.272 114.249714,134.656 C113.433714,135.04 112.305714,135.088 110.841714,135.064 C110.721714,134.32 110.409714,133.312 110.097714,132.616 C110.937714,132.64 111.897714,132.64 112.185714,132.64 C112.449714,132.64 112.545714,132.568 112.545714,132.304 L112.545714,127.192 L108.753714,127.192 L108.753714,118.528 L111.969714,118.528 C112.209714,117.832 112.425714,117.112 112.545714,116.488 L107.913714,116.488 L107.913714,120.544 C107.913714,124.792 107.481714,131.128 104.625714,135.112 C104.121714,134.656 102.921714,133.888 102.225714,133.576 C104.913714,129.88 105.153714,124.432 105.153714,120.544 L105.153714,113.92 L120.153714,113.92 L120.153714,116.488 L113.121714,116.488 L115.809714,116.968 C115.497714,117.496 115.185714,118.024 114.873714,118.528 L119.457714,118.528 L119.457714,127.192 Z M115.953714,128.824 L118.425714,127.888 C119.193714,129.328 120.249714,131.272 120.753714,132.448 L118.113714,133.6 C117.681714,132.352 116.721714,130.336 115.953714,128.824 Z" id="扫一扫溯源" fill="#FFFFFF"></path>
                <g id="ui" transform="translate(12.000000, 0.000000)" fill-rule="nonzero">
                    <ellipse id="Oval" fill="#EF7F7F" cx="49" cy="53.1196875" rx="48.8725203" ry="48.8803125"></ellipse>
                    <path d="M69.2652846,0 L28.7347154,0 C22.781813,0 17.9385813,4.84400391 17.9385813,10.7978555 C17.9385813,13.3026328 17.9385813,70.2939375 17.9385813,90.8588906 C26.3827154,97.8191953 37.2031504,102 49,102 C60.7968496,102 71.6172846,97.8191953 80.0614187,90.8588906 C80.0614187,68.7197109 80.0614187,48.0814453 80.0614187,10.7978555 C80.0614187,4.84400391 75.2183862,0 69.2652846,0 Z" id="Shape" fill="#647892"></path>
                    <g id="Group" transform="translate(17.926829, 0.000000)" fill="#4D6682">
                        <path d="M12.684626,10.7978555 C12.684626,4.84400391 17.5278577,0 23.4807602,0 L10.8078862,0 C4.85498374,0 0.0117520325,4.84400391 0.0117520325,10.7978555 C0.0117520325,13.3026328 0.0117520325,70.2939375 0.0117520325,90.8588906 C3.79969106,93.9810469 8.0666748,96.5418047 12.684626,98.419043 C12.684626,68.6348437 12.684626,12.9087773 12.684626,10.7978555 Z" id="Shape"></path>
                        <path d="M37.7499187,7.72470703 L30.5134553,7.72470703 C29.5513821,7.72470703 28.771565,6.94476562 28.771565,5.98253906 C28.771565,5.0203125 29.5513821,4.24037109 30.5134553,4.24037109 L37.7497195,4.24037109 C38.7117927,4.24037109 39.4916098,5.0203125 39.4916098,5.98253906 C39.4916098,6.94476562 38.7117927,7.72470703 37.7499187,7.72470703 Z" id="Shape"></path>
                        <path d="M24.3958252,7.72570313 C23.4317602,7.72570313 22.653935,6.93261328 22.653935,5.98353516 C22.653935,4.89201563 23.6534553,4.06147266 24.7372317,4.27423828 C25.5783984,4.44895313 26.1377154,5.170125 26.1377154,5.98353516 C26.1377154,6.96229688 25.3341951,7.72570313 24.3958252,7.72570313 Z" id="Shape"></path>
                    </g>
                    <path d="M49,102 C58.1691748,102 66.7477602,99.4735078 74.0800325,95.0797383 C74.0800325,80.2486992 74.0800325,14.3662617 74.0800325,10.7978555 C74.0800325,8.13828516 71.9242317,5.98233984 69.2652846,5.98233984 L64.2139024,5.98233984 C63.2193618,5.98233984 62.4130528,6.78857812 62.4122561,7.78327734 L62.4122561,8.92739062 C62.4122561,10.4605781 61.1579756,11.7148594 59.6252317,11.7148594 L38.3745691,11.7148594 C36.841626,11.7148594 35.5875447,10.4605781 35.5875447,8.92739062 L35.5875447,7.78327734 C35.5869472,6.78857812 34.7806382,5.98233984 33.7858984,5.98233984 L28.7345163,5.98233984 C26.0755691,5.98233984 23.9199675,8.13828516 23.9199675,10.7978555 L23.9199675,95.0797383 C31.2522398,99.4733086 39.8308252,102 49,102 Z" id="Shape" fill="#EFEFEF"></path>
                    <g id="Group" transform="translate(23.902439, 5.976562)" fill="#DDDDDD">
                        <path d="M6.70901626,4.82129297 C6.70901626,3.09167578 7.12013821,1.45688672 7.8461748,0.0059765625 L4.83207724,0.0059765625 C2.17313008,0.0059765625 0.0175284553,2.16192188 0.0175284553,4.82149219 L0.0175284553,89.1027773 C2.17472358,90.3901289 4.3747439,91.4938008 6.70881707,92.4424805 C6.70901626,62.6582813 6.70901626,6.93221484 6.70901626,4.82129297 Z" id="Shape"></path>
                        <path d="M26.3655854,90.3745898 L23.8295366,90.3745898 C22.8674634,90.3745898 22.0876463,89.5946484 22.0876463,88.6324219 C22.0876463,87.6701953 22.8674634,86.8902539 23.8295366,86.8902539 L26.3655854,86.8902539 C27.3276585,86.8902539 28.1074756,87.6701953 28.1074756,88.6324219 C28.1074756,89.5946484 27.3274593,90.3745898 26.3655854,90.3745898 Z" id="Shape"></path>
                    </g>
                    <path d="M49.6057276,25.9147734 C49.2702967,25.5812812 48.7295041,25.5812812 48.3940732,25.9147734 C43.8376707,30.4456055 37.6557033,32.5194727 31.5548049,31.9337695 C31.0490691,31.8851602 30.6110569,32.2814063 30.6110569,32.7894141 L30.6110569,51.2548008 C30.6110569,65.5130859 37.6901626,63.1509492 48.5241423,70.3491211 C48.8119675,70.5403711 49.1872358,70.5403711 49.4752602,70.3491211 C60.3092398,63.1509492 67.3883455,65.5128867 67.3883455,51.2548008 L67.3883455,32.7894141 C67.3883455,32.281207 66.9505325,31.8851602 66.4445976,31.9337695 C60.3421057,32.5196719 54.1597398,30.4432148 49.6057276,25.9147734 Z" id="Shape" fill="#64C4FF"></path>
                    <path d="M39.3322602,56.2400508 L39.3322602,31.2313242 C36.817126,31.9467188 34.1737154,32.1851836 31.5552033,31.9335703 C31.0494675,31.8851602 30.6114553,32.2810078 30.6114553,32.7892148 L30.6114553,51.2544023 C30.6114553,62.6011055 35.0947561,63.4224844 42.3857967,66.9123984 C40.4166341,64.8544687 39.3322602,61.820168 39.3322602,56.2400508 Z" id="Shape" fill="#48AEF9"></path>
                    <g id="Group" transform="translate(30.475610, 25.500000)" fill="#FAC149">
                        <path d="M36.912935,7.28941406 C36.912935,6.78120703 36.475122,6.38516016 35.9693862,6.43376953 C29.8284512,7.02305859 23.658435,4.91751563 19.1301179,0.414773438 C18.9624024,0.248027344 18.7434959,0.164753906 18.5243902,0.164753906 L18.5243902,22.5786563 L36.912935,22.5786563 L36.912935,7.28941406 Z" id="Shape"></path>
                        <path d="M0.135845528,25.7546016 C0.135845528,40.0128867 7.21495122,37.65075 18.0489309,44.8489219 C18.1929431,44.9443477 18.3588659,44.9923594 18.5243902,44.9923594 L18.5243902,22.5786563 L0.135845528,22.5786563 L0.135845528,25.7546016 Z" id="Shape"></path>
                    </g>
                    <path d="M39.3322602,56.2400508 L39.3322602,48.0786563 L30.6114553,48.0786563 L30.6114553,51.2548008 C30.6114553,53.8581914 30.8417154,56.8534453 31.8812724,59.2281328 C33.7623943,63.5284688 37.9210203,64.7805586 42.3855976,66.9127969 C40.4166341,64.8544687 39.3322602,61.820168 39.3322602,56.2400508 Z" id="Shape" fill="#F8A748"></path>
                    <path d="M59.3302358,85.8320039 L38.6697642,85.8320039 C36.8900285,85.8320039 35.4475163,84.3890625 35.4475163,82.6092422 C35.4475163,80.8292227 36.8902276,79.3864805 38.6697642,79.3864805 L59.3300366,79.3864805 C61.1097724,79.3864805 62.5522846,80.8294219 62.5522846,82.6092422 C62.5522846,84.3892617 61.1097724,85.8320039 59.3302358,85.8320039 Z" id="Shape" fill="#7CE89B"></path>
                    <path d="M49,82.6092422 C49,80.8292227 50.4427114,79.3862813 52.222248,79.3862813 L38.6699634,79.3862813 C36.8902276,79.3862813 35.4477154,80.8292227 35.4477154,82.6092422 C35.4477154,84.3890625 36.8904268,85.8320039 38.6699634,85.8320039 L52.222248,85.8320039 C50.4427114,85.8322031 49,84.3892617 49,82.6092422 Z" id="Shape" fill="#2FCC63"></path>
                    <path d="M46.957935,55.5322266 C46.1088008,55.5322266 45.2945244,55.19475 44.6939756,54.5943047 L40.2696341,50.1692578 C39.0193374,48.9187617 39.0193374,46.8913125 40.2696341,45.6408164 C41.5199309,44.3905195 43.5472561,44.3905195 44.7973537,45.6408164 L46.957935,47.8017422 L53.2024472,41.5560352 C54.4527439,40.3055391 56.4798699,40.3055391 57.7301667,41.5560352 C58.9804634,42.8065312 58.9804634,44.8339805 57.7301667,46.0844766 L49.2216951,54.5945039 C48.6213455,55.1949492 47.8070691,55.5322266 46.957935,55.5322266 Z" id="Shape" fill="#EFEFEF"></path>
                    <path d="M57.7303659,41.5562344 C57.4969187,41.32275 57.2363821,41.1330938 56.9589146,40.986668 C57.1620854,41.8694063 56.9226626,42.8334258 56.2348699,43.5211289 L49.0099593,50.7471914 C48.5000407,51.2569922 47.8086626,51.543668 47.0878049,51.543668 C46.3665488,51.543668 45.6751707,51.2573906 45.1654512,50.7471914 L41.4085854,46.9897266 C40.9466707,46.5277383 40.6861341,45.9408398 40.6261789,45.3378047 C40.5024837,45.4298438 40.3821748,45.528457 40.2698333,45.6406172 C39.0195366,46.8911133 39.0195366,48.9185625 40.2698333,50.1690586 L44.6941748,54.5943047 C45.2945244,55.19475 46.109,55.5322266 46.9581341,55.5322266 C47.8070691,55.5322266 48.6215447,55.19475 49.2218943,54.5943047 L57.7303659,46.0844766 C58.9804634,44.8339805 58.9804634,42.8065313 57.7303659,41.5562344 Z" id="Shape" fill="#DDDDDD"></path>
                </g>
            </g>
        </g>
    </g>
</svg>