<?xml version="1.0" encoding="UTF-8"?>
<svg width="190px" height="190px" viewBox="0 0 190 190" version="1.1" xmlns="http://www.w3.org/2000/svg" xmlns:xlink="http://www.w3.org/1999/xlink">
    <!-- Generator: Sketch 51.2 (57519) - http://www.bohemiancoding.com/sketch -->
    <title>warning</title>
    <desc>Created with Sketch.</desc>
    <defs>
        <circle id="path-1" cx="95" cy="95" r="91"></circle>
    </defs>
    <g id="Page-1" stroke="none" stroke-width="1" fill="none" fill-rule="evenodd">
        <g id="iPhone-8-Copy-3" transform="translate(-93.000000, -193.000000)">
            <g id="warning" transform="translate(93.000000, 193.000000)">
                <circle id="Oval" stroke="#FFFFFF" stroke-width="4" fill="#EDA932" fill-rule="nonzero" cx="95" cy="95" r="93"></circle>
                <mask id="mask-2" fill="white">
                    <use xlink:href="#path-1"></use>
                </mask>
                <use id="Oval-2" fill="#EDA932" fill-rule="nonzero" xlink:href="#path-1"></use>
                <path d="M157.717356,160.936072 C147.372157,170.779326 134.713142,178.213158 120.63996,182.337916 L89.0086351,127.550855 L96.7603386,116.767749 L91.6037756,107.382107 L101.212572,63.0669155 L157.717356,160.936072 Z" id="Combined-Shape" fill-opacity="0.07" fill="#000000" fill-rule="nonzero" mask="url(#mask-2)"></path>
                <g id="感叹号" mask="url(#mask-2)" fill-rule="nonzero">
                    <g transform="translate(45.000000, 45.000000)">
                        <rect id="Rectangle-path" fill="#000000" opacity="0" x="0" y="0" width="100" height="100"></rect>
                        <path d="M45.7142857,60.7142857 C46.4285715,62.8571429 47.8571429,64.2857144 50,64.2857143 C52.1428571,64.2857142 53.5714286,62.8571429 54.2857143,60.7142857 L57.1428571,21.4285714 C57.1428571,17.1428571 53.5714285,14.2857143 50,14.2857143 C45.7142857,14.2857143 42.8571429,17.8571429 42.8571429,22.1428571 L45.7142857,60.7142857 Z M50,71.4285714 C45.7142857,71.4285714 42.8571429,74.2857143 42.8571429,78.5714286 C42.8571429,82.857143 45.7142857,85.7142857 50,85.7142857 C54.2857143,85.7142857 57.1428571,82.8571429 57.1428571,78.5714286 C57.1428571,74.2857144 54.2857143,71.4285715 50,71.4285714 Z" id="Shape" fill="#FFFFFF"></path>
                    </g>
                </g>
            </g>
        </g>
    </g>
</svg>